<svg width="76" height="76" viewBox="0 0 76 76" fill="none" xmlns="http://www.w3.org/2000/svg">
<path d="M63.0425 44.7871L41.8955 56.9956L28.4063 64.7842L28.1881 64.9102L20.7493 69.2049C15.6235 72.1646 9.21484 68.4653 9.21484 62.545V13.7101C9.21484 7.78983 15.6228 4.09116 20.7493 7.05024L28.9938 11.8101L30.0621 12.4265L41.8955 19.2588L46.3718 21.8428L46.8313 22.1088L63.0418 31.4673C68.1683 34.4271 68.1683 41.8273 63.0425 44.7871Z" fill="white"/>
<path d="M32.4384 47.1115C31.4701 47.3107 29.8797 47.4324 27.6701 46.7442C26.9811 44.5346 27.1029 42.9435 27.3027 41.9759C28.2021 37.6186 32.938 34.9642 39.2235 35.1915C39.4501 41.4763 36.7957 46.2129 32.4384 47.1115Z" fill="#F7DAAB"/>
<path d="M36.7495 51.6298C36.1168 51.5925 35.1218 51.4089 33.9248 50.6468C33.9839 49.2295 34.4019 48.3077 34.7327 47.7672C36.2231 45.3345 39.6818 44.5252 43.4607 45.6688C42.2398 49.423 39.5981 51.798 36.7495 51.6298Z" fill="#2F050F"/>
<path d="M49.2345 48.7476C48.6828 48.6737 47.8081 48.438 46.723 47.6393C46.6878 46.2924 46.9953 45.4402 47.2493 44.9455C48.395 42.7183 51.3484 42.1574 54.6974 43.4769C53.8656 46.9785 51.7172 49.0805 49.2345 48.7476Z" fill="#D86B79"/>
<path d="M61.8309 45.4085C61.1828 45.8399 60.0463 46.4 58.1695 46.5619C56.8895 45.1791 56.4257 43.9997 56.2364 43.2453C55.3849 39.8471 57.9704 36.5327 62.707 34.8269C65.0644 39.275 64.747 43.467 61.8309 45.4085Z" fill="#2F050F"/>
<path d="M49.937 40.4538C49.3712 40.5805 48.4381 40.6684 47.1285 40.2856C46.6901 38.9943 46.7365 38.0584 46.8393 37.487C47.3009 34.9178 50.0439 33.3105 53.7412 33.3809C53.9713 37.0718 52.4837 39.8817 49.937 40.4538Z" fill="#D86B79"/>
<path d="M45.8111 33.9754C45.3635 34.3469 44.5705 34.8515 43.2292 35.1069C42.2539 34.152 41.8725 33.2928 41.7057 32.7354C40.9555 30.226 42.6761 27.5365 46.0074 25.9116C47.8814 29.1085 47.8251 32.3013 45.8111 33.9754Z" fill="#D86B79"/>
<path d="M38.0604 30.5864C37.6881 31.0093 36.9999 31.6124 35.7276 32.0712C34.5954 31.3316 34.0655 30.5857 33.8002 30.0889C32.6081 27.8511 33.8114 25.0405 36.7909 22.9695C39.2131 25.6717 39.7359 28.6836 38.0604 30.5864Z" fill="#D86B79"/>
<path d="M27.5264 29.7681C26.9874 29.9046 26.1021 30.0144 24.8692 29.6885C24.4808 28.4747 24.5455 27.5845 24.6539 27.0391C25.1451 24.5853 27.7777 22.9808 31.28 22.9421C31.42 26.441 29.9514 29.1523 27.5264 29.7681Z" fill="#D86B79"/>
<path d="M25.1155 20.2553C24.5744 19.9914 23.7679 19.4664 22.9932 18.356C23.5554 17.1245 24.2542 16.4623 24.7391 16.1055C26.9219 14.4983 30.2469 15.0451 33.1476 17.4341C30.7241 20.3067 27.5525 21.4431 25.1155 20.2553Z" fill="#D86B79"/>
<path d="M43.5494 54.2182C43.1715 53.758 42.6599 52.9438 42.4087 51.5765C43.3967 50.5984 44.2812 50.2226 44.8548 50.0615C47.4367 49.3345 50.1839 51.1234 51.825 54.5342C48.5288 56.3941 45.2517 56.2906 43.5494 54.2182Z" fill="#D86B79"/>
<path d="M35.9872 55.5475C36.0146 54.9459 36.1737 54.0015 36.8717 52.8713C38.1975 52.9445 39.0638 53.3541 39.5725 53.6757C41.8645 55.1239 42.6632 58.425 41.64 62.0068C38.1166 60.7986 35.8647 58.2561 35.9872 55.5475Z" fill="#D86B79"/>
<path d="M29.8024 52.9824C29.9973 52.4842 30.4069 51.7313 31.3456 50.9551C32.5004 51.3428 33.1527 51.8995 33.513 52.2949C35.1351 54.0746 34.9064 57.0414 32.9831 59.7943C30.2014 57.9126 28.9256 55.2244 29.8024 52.9824Z" fill="#D86B79"/>
<path d="M21.52 43.5888C21.1921 44.1047 20.5594 44.8654 19.2871 45.562C17.9761 44.9407 17.3006 44.2187 16.9431 43.7225C15.3359 41.4911 16.1704 38.2625 18.9958 35.554C21.9732 38.0929 22.9943 41.2673 21.52 43.5888Z" fill="#D86B79"/>
<path d="M15.0343 46.1544C14.9914 46.6956 14.8141 47.552 14.1188 48.6026C12.8592 48.6061 12.0464 48.2846 11.5707 48.0228C9.42931 46.8434 8.76009 43.9223 9.83254 40.6543C13.1526 41.5536 15.2257 43.7175 15.0343 46.1544Z" fill="#2F050F"/>
<path d="M14.5723 53.0086C14.8524 52.7799 15.352 52.4703 16.212 52.3105C16.8643 52.8925 17.131 53.4168 17.252 53.7574C17.796 55.2907 16.7496 56.9402 14.6378 57.9416C13.3521 55.9909 13.312 54.0374 14.5723 53.0086Z" fill="#2F050F"/>
<path d="M18.076 56.4587C18.3906 56.2019 18.9514 55.8542 19.9169 55.6748C20.6494 56.3285 20.9485 56.9168 21.085 57.2997C21.6958 59.0209 20.5207 60.8731 18.1499 61.9969C16.7052 59.8063 16.6608 57.6135 18.076 56.4587Z" fill="#2F050F"/>
<path d="M21.4316 61.4276C21.6631 61.239 22.0762 60.9822 22.787 60.8506C23.326 61.3319 23.5463 61.7647 23.6469 62.0462C24.0966 63.3136 23.2317 64.6759 21.4865 65.5042C20.4232 63.892 20.3901 62.2777 21.4316 61.4276Z" fill="#2F050F"/>
<path d="M25.1057 60.7817C24.8383 60.61 24.4435 60.2764 24.0762 59.6009C24.3851 58.8972 24.751 58.5312 25.0029 58.3377C26.1366 57.4658 27.8002 57.8923 29.2118 59.3855C27.9304 60.9914 26.3083 61.5558 25.1057 60.7817Z" fill="#F7DAAB"/>
<path d="M22.9434 56.1337C22.6394 55.9381 22.1898 55.5588 21.7725 54.7903C22.1243 53.9895 22.5402 53.5743 22.8266 53.3534C24.1165 52.3619 26.0088 52.8467 27.6139 54.5447C26.1565 56.3716 24.3121 57.0133 22.9434 56.1337Z" fill="#F7DAAB"/>
<path d="M26.7957 11.407C26.7161 11.7278 26.5156 12.2373 25.9484 12.8693C25.099 12.8904 24.5818 12.7123 24.2863 12.5646C22.9541 11.8988 22.7782 10.1804 23.8084 8.22974C25.9604 8.71248 27.1539 9.96226 26.7957 11.407Z" fill="#2F050F"/>
<path d="M31.934 10.0706C31.6638 10.3112 31.1642 10.6511 30.2353 10.8876C29.4021 10.4147 29.0087 9.95585 28.8117 9.65185C27.925 8.28526 28.7892 6.64704 30.958 5.5C32.7482 7.17763 33.1493 8.98615 31.934 10.0706Z" fill="#D86B79"/>
<path d="M37.9086 9.98265C37.5779 10.1741 36.9959 10.4147 36.0283 10.4457C35.357 9.74832 35.1079 9.16988 35.0037 8.80184C34.5372 7.14602 35.8446 5.61688 38.2752 4.91528C39.5285 7.11365 39.3983 9.12202 37.9086 9.98265Z" fill="#F7DAAB"/>
<path d="M43.1283 12.8813C42.7026 12.9157 42.0151 12.8855 41.1143 12.4773C40.9581 11.5006 41.1094 10.83 41.2558 10.4281C41.9123 8.61963 44.1016 7.73507 46.7728 8.158C46.4766 10.8454 45.0459 12.7243 43.1283 12.8813Z" fill="#F7DAAB"/>
<path d="M47.139 16.9429C46.7287 16.9028 46.0736 16.7508 45.2432 16.1857C45.17 15.1836 45.3678 14.5412 45.5388 14.1654C46.3086 12.4765 48.4732 11.9783 50.9967 12.8699C50.502 15.501 48.9862 17.1238 47.139 16.9429Z" fill="#F7DAAB"/>
<path d="M47.711 21.7853C47.4387 21.539 47.0495 21.0823 46.749 20.2273C47.2142 19.4497 47.6871 19.0795 48.003 18.893C49.4245 18.0528 51.226 18.8269 52.5665 20.8148C50.8558 22.4939 48.9361 22.8922 47.711 21.7853Z" fill="#F7DAAB"/>
<path d="M59.8779 34.2202C59.7154 34.6544 59.348 35.3412 58.4248 36.185C57.1743 36.1899 56.4389 35.9331 56.0251 35.7241C54.1624 34.7818 54.1491 32.4399 55.9407 29.8179C59.0349 30.5335 60.6105 32.2654 59.8779 34.2202Z" fill="#D86B79"/>
<path d="M19.2195 52.0367C18.8796 51.8179 18.3764 51.3935 17.9092 50.5336C18.3026 49.6378 18.7684 49.1727 19.0893 48.9257C20.5326 47.8159 22.65 48.3585 24.4466 50.2592C22.8154 52.3034 20.7507 53.0219 19.2195 52.0367Z" fill="#F7DAAB"/>
<path d="M26.8988 33.095C27.4216 32.9789 28.2795 32.8994 29.4659 33.2505C29.8234 34.4348 29.7474 35.2934 29.6341 35.8169C29.1225 38.1729 26.5533 39.6458 23.1685 39.5789C23.0847 36.1941 24.5449 33.6178 26.8988 33.095Z" fill="#2F050F"/>
<path d="M21.666 29.6624C22.2107 29.8539 23.0383 30.2669 23.9073 31.2479C23.5259 32.5019 22.9461 33.2225 22.5309 33.6236C20.6619 35.4293 17.4487 35.29 14.4102 33.3224C16.3517 30.2669 19.2143 28.8011 21.666 29.6624Z" fill="#2F050F"/>
<path d="M19.4863 24.2982C19.9718 24.7169 20.6565 25.4656 21.1329 26.7625C20.1787 27.7611 19.2526 28.1749 18.6397 28.3649C15.8826 29.2192 12.578 27.671 10.2656 24.5001C13.6511 22.5143 17.2991 22.4143 19.4863 24.2982Z" fill="#2F050F"/>
<path d="M21.1305 17.2645C21.0981 18.0245 20.887 19.2434 19.937 20.814C18.1123 21.0195 16.9174 20.7014 16.2137 20.4129C13.0478 19.1132 11.9197 15.1577 13.2962 10.4421C18.1546 11.1655 21.2755 13.8445 21.1305 17.2645Z" fill="#F7DAAB"/>
<path d="M48.0325 44.1841C47.6708 48.2121 43.8877 52.0008 39.7732 52.9937C32.3822 54.7776 28.0692 46.5661 20.7774 47.6709C17.7965 48.1227 13.5553 50.2479 9.21484 58.6832C9.21484 57.7043 9.21484 56.7255 9.21484 55.7466C13.3435 48.5998 17.3236 46.519 20.4108 46.1108C28.2282 45.0778 33.1246 54.4004 39.9575 52.2591C43.4514 51.1641 46.1023 47.488 46.381 43.9997C46.7258 39.686 43.4205 35.9254 40.5078 34.0887C34.152 30.0819 28.49 34.4969 24.0813 30.4182C20.4783 27.0841 21.3537 21.446 21.4199 21.0583C22.0968 17.0809 25.077 13.5195 28.9931 11.8102C30.8622 10.9925 32.9458 10.5977 35.0928 10.7807C40.9505 11.2789 45.8905 15.9543 46.8306 22.1096L46.3711 21.8436C45.1825 16.1112 40.4698 11.9326 35.0928 11.6068C33.3434 11.5013 31.632 11.8095 30.0614 12.4273C26.0383 14.0107 22.9406 17.6277 22.5212 21.5178C22.4677 22.0076 22.1109 25.8962 24.8153 28.7673C28.6659 32.8566 33.6735 29.5224 40.232 33.0803C43.7231 34.974 48.4745 39.2652 48.0325 44.1841Z" fill="#D86B79"/>
<path d="M28.4063 64.7842L28.1881 64.9102C26.0819 63.6435 24.7857 62.272 23.9898 61.2531C21.9688 58.6662 22.1658 57.0203 19.8605 54.5538C18.6944 53.3061 17.3307 51.8473 15.639 51.9846C14.2111 52.1 13.1992 53.2998 11.6011 55.1963C10.4681 56.5403 9.70251 57.7908 9.21484 58.6831C9.21484 57.674 9.21484 56.6642 9.21484 55.6551C9.37529 55.3455 9.61384 54.9261 9.94881 54.4623C10.3309 53.9338 12.5673 50.8382 15.4546 50.7918C17.9731 50.751 19.8 53.0493 20.7774 54.2786C22.7428 56.7515 22.3403 58.2736 24.1728 60.8857C25.5633 62.8681 27.2473 64.0841 28.4063 64.7842Z" fill="#F7DAAB"/>
<g style="mix-blend-mode:multiply">
<path d="M22.4445 68.2253L20.7493 69.2042C15.6235 72.1639 9.21484 68.4646 9.21484 62.5443V13.7101C9.21484 7.78983 15.6228 4.09116 20.7493 7.05024L22.4445 8.02909C18.7345 8.09946 15.3638 11.0874 15.3638 15.2449V61.0095C15.3638 65.1663 18.7345 68.1542 22.4445 68.2253Z" fill="#B8747F" fill-opacity="0.6"/>
</g>
</svg>
