<svg width="78" height="87" viewBox="0 0 78 87" fill="none" xmlns="http://www.w3.org/2000/svg">
<g filter="url(#filter0_d_2006_770)">
<path d="M64.0425 46.7871L42.8955 58.9956L29.4063 66.7842L29.1881 66.9102L21.7493 71.2049C16.6235 74.1646 10.2148 70.4653 10.2148 64.545V15.7101C10.2148 9.78983 16.6228 6.09116 21.7493 9.05024L29.9938 13.8101L31.0621 14.4265L42.8955 21.2588L47.3718 23.8428L47.8313 24.1088L64.0418 33.4673C69.1683 36.4271 69.1683 43.8273 64.0425 46.7871Z" fill="#681D29"/>
<path d="M33.4384 49.1115C32.4701 49.3107 30.8797 49.4324 28.6701 48.7442C27.9811 46.5346 28.1029 44.9435 28.3027 43.9759C29.2021 39.6186 33.938 36.9642 40.2235 37.1915C40.4501 43.4763 37.7957 48.2129 33.4384 49.1115Z" fill="#F7DAAB"/>
<path d="M37.7495 53.6298C37.1168 53.5925 36.1218 53.4089 34.9248 52.6468C34.9839 51.2295 35.4019 50.3077 35.7327 49.7672C37.2231 47.3345 40.6818 46.5252 44.4607 47.6688C43.2398 51.423 40.5981 53.798 37.7495 53.6298Z" fill="#2F050F"/>
<path d="M50.2345 50.7476C49.6828 50.6737 48.8081 50.438 47.723 49.6393C47.6878 48.2924 47.9953 47.4402 48.2493 46.9455C49.395 44.7183 52.3484 44.1574 55.6974 45.4769C54.8656 48.9785 52.7172 51.0805 50.2345 50.7476Z" fill="#D86B79"/>
<path d="M62.8309 47.4085C62.1828 47.8399 61.0463 48.4 59.1695 48.5619C57.8895 47.1791 57.4257 45.9997 57.2364 45.2453C56.3849 41.8471 58.9704 38.5327 63.707 36.8269C66.0644 41.275 65.747 45.467 62.8309 47.4085Z" fill="#2F050F"/>
<path d="M50.937 42.4538C50.3712 42.5805 49.4381 42.6684 48.1285 42.2856C47.6901 40.9943 47.7365 40.0584 47.8393 39.487C48.3009 36.9178 51.0439 35.3105 54.7412 35.3809C54.9713 39.0718 53.4837 41.8817 50.937 42.4538Z" fill="#D86B79"/>
<path d="M46.8111 35.9754C46.3635 36.3469 45.5705 36.8515 44.2292 37.1069C43.2539 36.152 42.8725 35.2928 42.7057 34.7354C41.9555 32.226 43.6761 29.5365 47.0074 27.9116C48.8814 31.1085 48.8251 34.3013 46.8111 35.9754Z" fill="#D86B79"/>
<path d="M39.0604 32.5864C38.6881 33.0093 37.9999 33.6124 36.7276 34.0712C35.5954 33.3316 35.0655 32.5857 34.8002 32.0889C33.6081 29.8511 34.8114 27.0405 37.7909 24.9695C40.2131 27.6717 40.7359 30.6836 39.0604 32.5864Z" fill="#D86B79"/>
<path d="M28.5264 31.7681C27.9874 31.9046 27.1021 32.0144 25.8692 31.6885C25.4808 30.4747 25.5455 29.5845 25.6539 29.0391C26.1451 26.5853 28.7777 24.9808 32.28 24.9421C32.42 28.441 30.9514 31.1523 28.5264 31.7681Z" fill="#D86B79"/>
<path d="M26.1155 22.2553C25.5744 21.9914 24.7679 21.4664 23.9932 20.356C24.5554 19.1245 25.2542 18.4623 25.7391 18.1055C27.9219 16.4983 31.2469 17.0451 34.1476 19.4341C31.7241 22.3067 28.5525 23.4431 26.1155 22.2553Z" fill="#D86B79"/>
<path d="M44.5494 56.2182C44.1715 55.758 43.6599 54.9438 43.4087 53.5765C44.3967 52.5984 45.2812 52.2226 45.8548 52.0615C48.4367 51.3345 51.1839 53.1234 52.825 56.5342C49.5288 58.3941 46.2517 58.2906 44.5494 56.2182Z" fill="#D86B79"/>
<path d="M36.9872 57.5475C37.0146 56.9459 37.1737 56.0015 37.8717 54.8713C39.1975 54.9445 40.0638 55.3541 40.5725 55.6757C42.8645 57.1239 43.6632 60.425 42.64 64.0068C39.1166 62.7986 36.8647 60.2561 36.9872 57.5475Z" fill="#D86B79"/>
<path d="M30.8024 54.9824C30.9973 54.4842 31.4069 53.7313 32.3456 52.9551C33.5004 53.3428 34.1527 53.8995 34.513 54.2949C36.1351 56.0746 35.9064 59.0414 33.9831 61.7943C31.2014 59.9126 29.9256 57.2244 30.8024 54.9824Z" fill="#D86B79"/>
<path d="M22.52 45.5888C22.1921 46.1047 21.5594 46.8654 20.2871 47.562C18.9761 46.9407 18.3006 46.2187 17.9431 45.7225C16.3359 43.4911 17.1704 40.2625 19.9958 37.554C22.9732 40.0929 23.9943 43.2673 22.52 45.5888Z" fill="#D86B79"/>
<path d="M16.0343 48.1544C15.9914 48.6956 15.8141 49.552 15.1188 50.6026C13.8592 50.6061 13.0464 50.2846 12.5707 50.0228C10.4293 48.8434 9.76009 45.9223 10.8325 42.6543C14.1526 43.5536 16.2257 45.7175 16.0343 48.1544Z" fill="#2F050F"/>
<path d="M15.5723 55.0086C15.8524 54.7799 16.352 54.4703 17.212 54.3105C17.8643 54.8925 18.131 55.4168 18.252 55.7574C18.796 57.2907 17.7496 58.9402 15.6378 59.9416C14.3521 57.9909 14.312 56.0374 15.5723 55.0086Z" fill="#2F050F"/>
<path d="M19.076 58.4587C19.3906 58.2019 19.9514 57.8542 20.9169 57.6748C21.6494 58.3285 21.9485 58.9168 22.085 59.2997C22.6958 61.0209 21.5207 62.8731 19.1499 63.9969C17.7052 61.8063 17.6608 59.6135 19.076 58.4587Z" fill="#2F050F"/>
<path d="M22.4316 63.4276C22.6631 63.239 23.0762 62.9822 23.787 62.8506C24.326 63.3319 24.5463 63.7647 24.6469 64.0462C25.0966 65.3136 24.2317 66.6759 22.4865 67.5042C21.4232 65.892 21.3901 64.2777 22.4316 63.4276Z" fill="#2F050F"/>
<path d="M26.1057 62.7817C25.8383 62.61 25.4435 62.2764 25.0762 61.6009C25.3851 60.8972 25.751 60.5312 26.0029 60.3377C27.1366 59.4658 28.8002 59.8923 30.2118 61.3855C28.9304 62.9914 27.3083 63.5558 26.1057 62.7817Z" fill="#F7DAAB"/>
<path d="M23.9434 58.1337C23.6394 57.9381 23.1898 57.5588 22.7725 56.7903C23.1243 55.9895 23.5402 55.5743 23.8266 55.3534C25.1165 54.3619 27.0088 54.8467 28.6139 56.5447C27.1565 58.3716 25.3121 59.0133 23.9434 58.1337Z" fill="#F7DAAB"/>
<path d="M27.7957 13.407C27.7161 13.7278 27.5156 14.2373 26.9484 14.8693C26.099 14.8904 25.5818 14.7123 25.2863 14.5646C23.9541 13.8988 23.7782 12.1804 24.8084 10.2297C26.9604 10.7125 28.1539 11.9623 27.7957 13.407Z" fill="#2F050F"/>
<path d="M32.934 12.0706C32.6638 12.3112 32.1642 12.6511 31.2353 12.8876C30.4021 12.4147 30.0087 11.9559 29.8117 11.6519C28.925 10.2853 29.7892 8.64704 31.958 7.5C33.7482 9.17763 34.1493 10.9861 32.934 12.0706Z" fill="#D86B79"/>
<path d="M38.9086 11.9827C38.5779 12.1741 37.9959 12.4147 37.0283 12.4457C36.357 11.7483 36.1079 11.1699 36.0037 10.8018C35.5372 9.14602 36.8446 7.61688 39.2752 6.91528C40.5285 9.11365 40.3983 11.122 38.9086 11.9827Z" fill="#F7DAAB"/>
<path d="M44.1283 14.8813C43.7026 14.9157 43.0151 14.8855 42.1143 14.4773C41.9581 13.5006 42.1094 12.83 42.2558 12.4281C42.9123 10.6196 45.1016 9.73507 47.7728 10.158C47.4766 12.8454 46.0459 14.7243 44.1283 14.8813Z" fill="#F7DAAB"/>
<path d="M48.139 18.9429C47.7287 18.9028 47.0736 18.7508 46.2432 18.1857C46.17 17.1836 46.3678 16.5412 46.5388 16.1654C47.3086 14.4765 49.4732 13.9783 51.9967 14.8699C51.502 17.501 49.9862 19.1238 48.139 18.9429Z" fill="#F7DAAB"/>
<path d="M48.711 23.7853C48.4387 23.539 48.0495 23.0823 47.749 22.2273C48.2142 21.4497 48.6871 21.0795 49.003 20.893C50.4245 20.0528 52.226 20.8269 53.5665 22.8148C51.8558 24.4939 49.9361 24.8922 48.711 23.7853Z" fill="#F7DAAB"/>
<path d="M60.8779 36.2202C60.7154 36.6544 60.348 37.3412 59.4248 38.185C58.1743 38.1899 57.4389 37.9331 57.0251 37.7241C55.1624 36.7818 55.1491 34.4399 56.9407 31.8179C60.0349 32.5335 61.6105 34.2654 60.8779 36.2202Z" fill="#D86B79"/>
<path d="M20.2195 54.0367C19.8796 53.8179 19.3764 53.3935 18.9092 52.5336C19.3026 51.6378 19.7684 51.1727 20.0893 50.9257C21.5326 49.8159 23.65 50.3585 25.4466 52.2592C23.8154 54.3034 21.7507 55.0219 20.2195 54.0367Z" fill="#F7DAAB"/>
<path d="M27.8988 35.095C28.4216 34.9789 29.2795 34.8994 30.4659 35.2505C30.8234 36.4348 30.7474 37.2934 30.6341 37.8169C30.1225 40.1729 27.5533 41.6458 24.1685 41.5789C24.0847 38.1941 25.5449 35.6178 27.8988 35.095Z" fill="#2F050F"/>
<path d="M22.666 31.6624C23.2107 31.8539 24.0383 32.2669 24.9073 33.2479C24.5259 34.5019 23.9461 35.2225 23.5309 35.6236C21.6619 37.4293 18.4487 37.29 15.4102 35.3224C17.3517 32.2669 20.2143 30.8011 22.666 31.6624Z" fill="#2F050F"/>
<path d="M20.4863 26.2982C20.9718 26.7169 21.6565 27.4656 22.1329 28.7625C21.1787 29.7611 20.2526 30.1749 19.6397 30.3649C16.8826 31.2192 13.578 29.671 11.2656 26.5001C14.6511 24.5143 18.2991 24.4143 20.4863 26.2982Z" fill="#2F050F"/>
<path d="M22.1305 19.2645C22.0981 20.0245 21.887 21.2434 20.937 22.814C19.1123 23.0195 17.9174 22.7014 17.2137 22.4129C14.0478 21.1132 12.9197 17.1577 14.2962 12.4421C19.1546 13.1655 22.2755 15.8445 22.1305 19.2645Z" fill="#F7DAAB"/>
<path d="M49.0325 46.1841C48.6708 50.2121 44.8877 54.0008 40.7732 54.9937C33.3822 56.7776 29.0692 48.5661 21.7774 49.6709C18.7965 50.1227 14.5553 52.2479 10.2148 60.6832C10.2148 59.7043 10.2148 58.7255 10.2148 57.7466C14.3435 50.5998 18.3236 48.519 21.4108 48.1108C29.2282 47.0778 34.1246 56.4004 40.9575 54.2591C44.4514 53.1641 47.1023 49.488 47.381 45.9997C47.7258 41.686 44.4205 37.9254 41.5078 36.0887C35.152 32.0819 29.49 36.4969 25.0813 32.4182C21.4783 29.0841 22.3537 23.446 22.4199 23.0583C23.0968 19.0809 26.077 15.5195 29.9931 13.8102C31.8622 12.9925 33.9458 12.5977 36.0928 12.7807C41.9505 13.2789 46.8905 17.9543 47.8306 24.1096L47.3711 23.8436C46.1825 18.1112 41.4698 13.9326 36.0928 13.6068C34.3434 13.5013 32.632 13.8095 31.0614 14.4273C27.0383 16.0107 23.9406 19.6277 23.5212 23.5178C23.4677 24.0076 23.1109 27.8962 25.8153 30.7673C29.6659 34.8566 34.6735 31.5224 41.232 35.0803C44.7231 36.974 49.4745 41.2652 49.0325 46.1841Z" fill="#D86B79"/>
<path d="M29.4063 66.7842L29.1881 66.9102C27.0819 65.6435 25.7857 64.272 24.9898 63.2531C22.9688 60.6662 23.1658 59.0203 20.8605 56.5538C19.6944 55.3061 18.3307 53.8473 16.639 53.9846C15.2111 54.1 14.1992 55.2998 12.6011 57.1963C11.4681 58.5403 10.7025 59.7908 10.2148 60.6831C10.2148 59.674 10.2148 58.6642 10.2148 57.6551C10.3753 57.3455 10.6138 56.9261 10.9488 56.4623C11.3309 55.9338 13.5673 52.8382 16.4546 52.7918C18.9731 52.751 20.8 55.0493 21.7774 56.2786C23.7428 58.7515 23.3403 60.2736 25.1728 62.8857C26.5633 64.8681 28.2473 66.0841 29.4063 66.7842Z" fill="#F7DAAB"/>
<g style="mix-blend-mode:multiply">
<path d="M23.4445 70.2253L21.7493 71.2042C16.6235 74.1639 10.2148 70.4646 10.2148 64.5443V15.7101C10.2148 9.78983 16.6228 6.09116 21.7493 9.05024L23.4445 10.0291C19.7345 10.0995 16.3638 13.0874 16.3638 17.2449V63.0095C16.3638 67.1663 19.7345 70.1542 23.4445 70.2253Z" fill="#B4B4B4"/>
</g>
</g>
<defs>
<filter id="filter0_d_2006_770" x="0.214844" y="0.915283" width="77.6719" height="85.3313" filterUnits="userSpaceOnUse" color-interpolation-filters="sRGB">
<feFlood flood-opacity="0" result="BackgroundImageFix"/>
<feColorMatrix in="SourceAlpha" type="matrix" values="0 0 0 0 0 0 0 0 0 0 0 0 0 0 0 0 0 0 127 0" result="hardAlpha"/>
<feOffset dy="4"/>
<feGaussianBlur stdDeviation="5"/>
<feComposite in2="hardAlpha" operator="out"/>
<feColorMatrix type="matrix" values="0 0 0 0 0.968627 0 0 0 0 0.854902 0 0 0 0 0.670588 0 0 0 0.5 0"/>
<feBlend mode="normal" in2="BackgroundImageFix" result="effect1_dropShadow_2006_770"/>
<feBlend mode="normal" in="SourceGraphic" in2="effect1_dropShadow_2006_770" result="shape"/>
</filter>
</defs>
</svg>
