<svg width="20" height="20" viewBox="0 0 20 20" fill="none" xmlns="http://www.w3.org/2000/svg">
<path d="M4.9229 4.41567C4.88538 4.45319 4.88006 4.50416 4.89336 4.7696C4.9362 5.67567 4.939 5.81511 4.90946 5.86873C4.87194 5.94377 4.7969 5.93845 4.64136 5.8553C4.57164 5.81777 4.49128 5.79089 4.46706 5.79635C4.35716 5.81777 4.35982 5.87139 4.50724 6.54423L4.65214 7.19845L4.66824 7.96243L4.68434 8.72641L4.7808 8.99451C4.9229 9.38861 4.97386 9.49851 5.13738 9.75051C5.31434 10.0213 5.58244 10.2947 5.82898 10.4556C5.98984 10.5601 6.0086 10.5842 6.0086 10.6593C6.0086 10.8254 6.00062 10.8309 5.72986 10.8309C5.2687 10.8336 4.91758 10.9516 4.64948 11.1981C4.57178 11.2678 4.23662 11.6887 3.90426 12.1284C3.1428 13.1417 3.14014 13.1499 3.14014 13.9381C3.14014 14.4394 3.17234 14.6243 3.30366 14.8843C3.44842 15.1712 3.79688 15.4687 4.09984 15.5598L4.15878 15.5786V15.0666C4.15878 14.6376 4.16676 14.5385 4.20162 14.4768C4.34638 14.2356 4.7003 14.2837 4.77534 14.5545C4.78878 14.6081 4.80222 14.8709 4.80222 15.1388V15.6294H6.94422H9.08888L9.097 15.0638L9.10498 14.4981L9.20424 14.4069C9.32758 14.297 9.47234 14.2836 9.5849 14.3721C9.72434 14.482 9.73498 14.5382 9.73498 15.0959V15.6106L9.87442 15.5945C10.0675 15.5705 10.365 15.4229 10.5419 15.2594L10.6948 15.1199H11.9039H13.1129V14.691C13.1129 14.2701 13.1156 14.2594 13.18 14.195C13.2658 14.1065 13.4051 14.1065 13.507 14.1923L13.582 14.2566L13.59 14.6774L13.6008 15.0982L13.708 15.0821C13.9896 15.0366 14.3112 14.7765 14.4479 14.4817C14.5069 14.353 14.5203 14.2806 14.5284 14.0447L14.5392 13.7605L14.3569 13.7391C13.7752 13.6775 13.2042 13.3907 12.7833 12.9509C11.9764 12.1064 11.8397 10.833 12.4482 9.83577C12.5981 9.58965 13.019 9.15005 13.2147 9.03469L13.3299 8.96763L13.3219 8.51193C13.3139 8.06953 13.3111 8.05077 13.2361 7.89803C13.1315 7.68621 12.9627 7.52269 12.7429 7.41811L12.5633 7.33229L11.8609 7.32431L11.1585 7.31353L11.003 7.11515C10.8394 6.90333 10.7617 6.86847 10.7134 6.97571C10.6651 7.08561 10.5982 7.06419 10.3301 6.84439C10.0084 6.58161 10.0111 6.58161 9.9601 6.62459C9.92524 6.65413 9.91992 6.73183 9.93868 7.20363C9.9601 7.83097 9.9601 7.82832 9.73218 7.72108C9.61416 7.66479 9.5954 7.66213 9.55788 7.69699C9.52302 7.73451 9.5338 7.80157 9.64104 8.29213C9.76172 8.84163 9.76172 8.85241 9.76172 9.35375V9.86041L9.85818 10.1338C9.96808 10.4529 10.0592 10.6217 10.2362 10.8415C10.3487 10.981 10.5901 11.1873 10.7375 11.2732C10.775 11.2946 10.7804 11.3215 10.7671 11.3992L10.7483 11.4956L10.4614 11.5064C10.196 11.5144 10.1585 11.5225 9.98432 11.6083L9.79392 11.7021L9.60898 11.4797C9.23364 11.0185 8.93068 10.8604 8.41604 10.8576C8.15606 10.8576 8.14794 10.8523 8.11574 10.6566C8.09698 10.552 8.09964 10.5467 8.22564 10.469C8.40526 10.3564 8.69212 10.0802 8.84752 9.86854C9.0137 9.64061 9.15048 9.36719 9.28992 8.98121L9.39982 8.67293V7.54705C9.39982 6.43713 9.39982 6.41838 9.33822 6.24687C9.17204 5.78572 8.78872 5.44804 8.33022 5.36487C8.23908 5.34877 7.8209 5.33533 7.35176 5.33533L6.53136 5.33267L6.34376 5.08865C6.07832 4.74286 6.00328 4.70799 5.92558 4.88761C5.85852 5.03769 5.80756 5.01627 5.40548 4.68125C5.20444 4.50976 5.02216 4.37031 5.0034 4.37031C4.98184 4.37017 4.94698 4.38893 4.9229 4.41567Z" fill="#70232F"/>
<path d="M14.4854 9.03739C14.3541 9.07491 14.1985 9.24375 14.1637 9.39131C14.1449 9.46635 14.1315 9.75055 14.1315 10.1178V10.7236H13.488C12.7025 10.7236 12.6221 10.745 12.4935 10.997C12.3781 11.2249 12.4613 11.5332 12.6757 11.6672C12.775 11.7261 12.7991 11.7288 13.4532 11.7369L14.1288 11.7449L14.1368 12.4071C14.1448 13.0558 14.1448 13.0719 14.2118 13.1899C14.37 13.4688 14.7372 13.5304 14.9813 13.3159C15.1421 13.1738 15.1501 13.131 15.1501 12.3991V11.7422H15.7935C16.3163 11.7422 16.4584 11.7342 16.5388 11.702C16.9543 11.5251 16.9704 10.9835 16.5656 10.7745C16.4745 10.7289 16.4021 10.7236 15.807 10.7236H15.1502V10.0668C15.1502 9.33489 15.1423 9.29205 14.9814 9.14995C14.8366 9.02129 14.6705 8.98377 14.4854 9.03739Z" fill="#70232F"/>
</svg>
