<svg width="16" height="16" viewBox="0 0 16 16" fill="none" xmlns="http://www.w3.org/2000/svg">
<path fill-rule="evenodd" clip-rule="evenodd" d="M13.2736 0.118407C12.8649 0.128246 12.4541 0.236991 12.0772 0.454583C10.8712 1.15089 10.4537 2.71036 11.1499 3.91638C11.1616 3.9365 11.1741 3.956 11.1862 3.97573L8.19899 6.74758C7.35643 6.12135 6.31454 5.75002 5.18764 5.75002C4.86781 5.75002 4.55521 5.78079 4.2516 5.83791L3.32216 3.63515C4.06893 3.03864 4.29237 1.95911 3.80116 1.1083C3.26016 0.171262 2.04545 -0.153405 1.10842 0.387594C0.171379 0.928595 -0.154392 2.14221 0.386609 3.07924C0.78154 3.76329 1.53569 4.12179 2.27845 4.05483L3.17055 6.1708C1.38096 6.95251 0.125143 8.73974 0.125143 10.8125C0.125137 12.3899 0.85225 13.8018 1.98842 14.7313C2.05548 14.8262 2.15028 14.898 2.25978 14.9368C3.08736 15.5263 4.09753 15.875 5.18764 15.875C6.31542 15.875 7.35829 15.5035 8.20119 14.8764C8.24866 14.8494 8.29195 14.8158 8.32972 14.7764C8.82443 14.3832 9.24372 13.9 9.56348 13.3514L11.9387 13.8931C11.9353 14.2332 12.018 14.578 12.1991 14.8917C12.7401 15.8288 13.9548 16.1534 14.8918 15.6124C15.8289 15.0714 16.1547 13.8578 15.6137 12.9208C15.0726 11.9837 13.8579 11.658 12.9209 12.199C12.6498 12.3555 12.4309 12.5691 12.2683 12.8153L10.0249 12.3022C10.1706 11.8309 10.2501 11.3307 10.2501 10.8125C10.2501 10.6041 10.2364 10.3992 10.2117 10.1973L12.2002 9.8446C12.7413 10.7808 13.9552 11.1061 14.8918 10.5653C15.8289 10.0243 16.1535 8.8096 15.6125 7.87256C15.0715 6.93552 13.8579 6.61086 12.9209 7.15186C12.3278 7.49431 11.9804 8.10615 11.942 8.74707L9.95128 9.10083C9.74001 8.51551 9.42361 7.97981 9.02513 7.5166L11.9761 4.77771C12.7493 5.27139 13.7657 5.33143 14.6106 4.84363C15.8166 4.14733 16.2352 2.58896 15.5389 1.38293C15.0602 0.553798 14.1728 0.0967528 13.2736 0.118407ZM5.18769 6.875C7.36898 6.875 9.1252 8.63121 9.1252 10.8125C9.1252 11.8108 8.75668 12.7192 8.14852 13.4119C7.80538 12.7869 7.27025 12.282 6.62362 11.977C7.11986 11.5632 7.43769 10.9416 7.43769 10.25C7.43769 9.01403 6.42367 7.99999 5.18769 8C3.95172 8 2.93769 9.01403 2.93769 10.25C2.93769 10.9416 3.25554 11.5632 3.75179 11.977C3.10526 12.2822 2.56994 12.7868 2.22688 13.4119C1.61872 12.7192 1.25019 11.8109 1.25019 10.8125C1.25019 8.63121 3.00641 6.875 5.18769 6.875Z" fill="#70232F"/>
</svg>
