<svg width="20" height="20" viewBox="0 0 20 20" fill="none" xmlns="http://www.w3.org/2000/svg">
<path d="M16.1103 14.65C16.2178 14.65 16.3196 14.6115 16.3873 14.5449C16.455 14.4784 16.4814 14.3911 16.4592 14.3073L16.2346 13.4608C16.3625 13.3623 16.4429 13.2247 16.4429 13.0717C16.4429 12.9107 16.3529 12.7678 16.2131 12.6686V9.72916L15.3127 10.1729V12.6686C15.1729 12.7678 15.0828 12.9107 15.0828 13.0717C15.0828 13.2247 15.1632 13.3623 15.2912 13.4608L15.0665 14.3073C15.0443 14.3911 15.0708 14.4784 15.1385 14.5449C15.2062 14.6114 15.3079 14.65 15.4155 14.65H16.1103ZM16.4154 8.01388L10.5581 5.12639C10.3865 5.04224 10.1931 5 9.99975 5C9.80637 5 9.61286 5.04221 9.44235 5.12639L3.5849 8.01388C3.42849 8.09095 3.3335 8.22708 3.3335 8.37358C3.3335 8.52011 3.42849 8.65628 3.5849 8.73347L9.44233 11.621C9.61283 11.7052 9.80634 11.7474 9.99973 11.7474C10.1931 11.7474 10.3865 11.7052 10.558 11.621L16.4154 8.73347C16.5718 8.65631 16.6668 8.52011 16.6668 8.37358C16.6668 8.22708 16.5718 8.09091 16.4154 8.01388ZM9.99973 12.4643C9.63486 12.4643 9.27875 12.3836 8.96835 12.2307L5.55168 10.5462V13.4467C5.55168 14.3051 7.54407 15 9.99973 15C12.4563 15 14.4485 14.3051 14.4485 13.4467V10.5462L11.032 12.2307C10.7215 12.3836 10.3646 12.4643 9.99973 12.4643Z" fill="#70232F"/>
</svg>
