<svg width="20" height="20" viewBox="0 0 20 20" fill="none" xmlns="http://www.w3.org/2000/svg">
<path d="M9.27051 4.55444C10.0029 4.55444 10.706 4.67532 11.3594 4.89624C11.234 5.22498 11.167 5.58062 11.167 5.95093C11.1671 7.64735 12.6032 9.02222 14.375 9.02222C14.6948 9.02222 15.0034 8.97672 15.2949 8.89331C15.4541 9.4222 15.542 9.98039 15.542 10.5583C15.542 13.8744 12.7337 16.5623 9.27051 16.5623C5.80744 16.5621 3 13.8743 3 10.5583C3.00005 7.24241 5.80747 4.55461 9.27051 4.55444ZM7.36621 13.572H8.06445V11.2322H11.7295V8.22339H7.36621V13.572Z" fill="#70232F"/>
<path fill-rule="evenodd" clip-rule="evenodd" d="M14.375 8.4641C15.8247 8.4641 17 7.33885 17 5.9508C17 4.56274 15.8247 3.4375 14.375 3.4375C12.9253 3.4375 11.75 4.56274 11.75 5.9508C11.75 7.33885 12.9253 8.4641 14.375 8.4641ZM13.2083 5.39229L12.625 5.9508L14.0833 7.34707L16.125 5.39229L15.5417 4.83378L14.0833 6.23005L13.2083 5.39229Z" fill="#70232F"/>
</svg>
